<svg xmlns="http://www.w3.org/2000/svg" width="210mm" height="297mm" viewBox="0 0 210 297"><g fill="#ffefe5" fill-rule="evenodd"><path d="M87.842 240.38s-.53 29.236-.265 33.337c.265 4.1.926 24.341.926 24.341l-21.034.397s-3.175-10.848-4.366-14.949c-1.19-4.1-8.334-34.792-8.731-36.645-.397-1.852-1.058-9.921-1.058-9.921zM96.705 239.85s4.101 12.17 5.027 14.023c.926 1.852 20.902 44.053 20.902 44.053l25.268.794c-3.648-18.288-7.97-40.59-13.361-58.473-1.511-4.639-4.101-16.801-4.101-16.801z"/></g><g fill-rule="evenodd"><path d="M63.83 58.025s-2.22 3.827-3.496 5.338c-1.275 1.512-2.078 2.835-2.74 3.45-.661.614-10.441 8.74-10.441 8.74s.189-.047.897-.047c.709 0 1.323.142 1.323.142s.095.236-.33.52c-.426.283-1.276.614-1.276.614s.756.141 1.134.047c.378-.095 7.228-5.245 8.079-5.906.85-.661 2.74-2.74 3.354-3.496.615-.756 4.253-6.662 4.253-6.662z" fill="#e63f3a"/><path d="M67.8 41.819s-1.465.661-2.08 1.512c-.614.85-3.78 6.473-4.204 7.134-.426.661-4.3 6.71-5.387 8.221-1.086 1.512-5.15 9.26-5.386 10.11-.236.851-3.212 10.159-3.354 10.915-.142.756-.378 2.22-.378 2.22s0-.33.992-1.18c.992-.851 1.7-1.23 1.7-1.23s.284 2.269.615 3.166c.33.898 1.229 2.41 1.512 2.6.283.188.455.203.455.203s-.435-2.506-.134-4.41c.3-1.905.367-2.172 1.102-5.045.735-2.873 3.275-9.956 4.811-12.762 1.537-2.807 4.538-8.816 5.27-9.808.733-.992 3.993-5.646 3.993-5.646z" fill="#e63530"/><path d="M61.043 53.749s1.498-1.234 2-1.635c.5-.4 1.787-1.42 1.787-1.42l2.489-5.963s-2.84 2.572-3.308 3.04c-.468.468-2.773 2.339-3.007 2.573a82.323 82.323 0 01-1.47 1.336z" fill="#df211b"/><path d="M69.359 33.362s-4.064.756-7.182 2.267c-3.118 1.512-5.575 3.024-6.615 3.875-1.039.85-1.417 1.417-1.417 1.417s.19 6.898 1.323 8.694c1.134 1.795 5.575 4.134 5.575 4.134l.614-.59s-.236-.143-1.086-1.324c-.85-1.181-1.276-2.551-1.418-3.685-.141-1.134-.236-4.961-.236-4.961s2.646-2.173 3.827-3.26c1.181-1.087 4.583-3.024 4.583-3.024z" fill="#e63530"/><path d="M66.594 63.98s-.598 3.487-.708 5.577c-.11 2.09-1.282 12.512-2.706 17.397-1.423 4.886-2.306 13.972-2.665 17.016-.359 3.045-.082 8.135-.082 8.135s-.029-.41.315-.975c.344-.565.211-4.483.211-4.483s.66 4.963 1.426 6.977c.765 2.015 2.196 3.936 2.196 3.936s-.686-4.51-.874-8.109c-.189-3.598-.026-11.684.284-14.648.31-2.964 2.87-21.116 3.586-24.385.717-3.269 2.672-3.185 2.644-3.866-.029-.68-3.627-2.573-3.627-2.573z" fill="#905042"/><g><path d="M85.612 32.795l-5.009-7.182s3.304-2.359 5.86-3.685c7.11-3.693 20.411-5.384 28.914-.095 2.363 1.607 13.985 7.654 13.985 7.654s6.52 6.993 7.56 16.159c1.04 9.166 1.04 16.82.945 20.505-.095 3.685-1.512 20.978-1.323 24.285.189 3.307 4.914 29.293 4.914 29.293l1.795 7.465s-3.59-4.914-4.441-7.465c-.85-2.551-.85-3.59-.85-3.59l1.133 11.717-72.76-3.402s-1.04-1.512.189-5.67a245.809 245.809 0 012.268-7.276s-4.725.662-7.182 5.67c-2.457 5.008-3.402 7.748-3.402 7.748s-.378-4.913.284-8.126c.661-3.213 2.646-8.032 4.063-10.961 1.417-2.93 2.551-6.143 3.59-8.788 1.04-2.646 3.403-11.245 3.592-12.568.189-1.323.472-5.67-.567-9.45-1.04-3.78-3.119-20.6-3.119-20.6l5.953-13.04z" fill="#905042"/><path d="M65.787 9.797s.668 13.898.534 18.442c-.133 4.544-.4 10.824.401 13.63.802 2.807 1.336 3.475 1.336 3.475l6.549-7.884s.267-3.074-.134-5.613c-.401-2.539-3.207-10.022-4.01-11.626-.8-1.604-4.676-10.424-4.676-10.424z" fill="#9b705d"/><path d="M71.09 19.84s.094 2.55.094 4.819c-.252 1.51-.33 3.004-.538 4.284a48.46 48.46 0 00-.407 3.228c-.141 1.795-.283 4.205.048 5.386.33 1.181 1.039 2.268 1.039 2.268l5.244-5.008z" fill="#e8bcbb"/><path d="M65.787 9.797s5.539 3.948 8.28 6.782c2.74 2.835 7.559 9.45 8.598 9.733 1.04.284 2.363.567 2.363.567L74.607 37.46z" fill="#905042"/><path d="M130.428 10.353s-.802 2.139-1.47 3.742c-.669 1.604-5.613 8.152-6.281 10.29-.668 2.138-2.406 9.22-2.406 9.22l4.811 13.899s1.203-1.47 1.871-2.673c.668-1.203 2.405-5.88 2.673-7.216.267-1.336.4-6.815.534-8.686.134-1.871.268-6.281.535-8.42.267-2.137-.267-10.156-.267-10.156z" fill="#945b4b"/><path d="M123.946 18.973s1.537 1.136 1.804 4.21c.268 3.073-1.002 12.427-1.403 13.029-.4.601-3.675 3.007-3.675 3.007l-1.537-7.55z" fill="#e8bcbb"/><path d="M130.428 10.353s-8.436 3.826-11.177 6.283c-2.74 2.457-6.52 4.536-7.559 6.142-1.04 1.607-1.417 1.89-1.417 1.89l9.996 8.938 8.43-16.308z" fill="#905042"/></g><g><path d="M38.298 170.794l.662 12.501s1.455 1.852 2.778 2.646c1.323.794 3.241 1.918 5.49 1.654 2.25-.265 5.325-.364 6.515-2.745 1.191-2.382 2.944-12.469 2.613-13.858-.33-1.389-.661-2.05-1.786-2.381-1.124-.33-3.836-4.167-3.836-4.167z" fill="#4e596a"/><path d="M50.734 164.444s1.653 2.976 2.183 4.167c.529 1.19.463 2.315.86 2.447.396.133 4.431.728 4.431.728l.86 15.809s-11.84-1.72-12.303-2.448c-.463-.727-.132-1.323-.926-2.315s-2.646-4.365-3.175-5.027c-.53-.661-1.72-5.16-1.72-5.16z" fill="#ffe8de"/><path d="M85.99 96.115s2.38.199 4.1.728c1.72.529 2.382.397 2.713.992.33.595.33 2.117.33 2.117l-7.606.198z" fill="#4e596a"/><path d="M51.858 171.786c-.793.959-1.753 3.572-2.414 4.862-.661 1.29-.53 3.968-.695 4.464-.131.395-.925 2.844-1.314 4.352 1.66.524 5.924 1.243 8.807 1.698.94-.555 1.536-1.022 1.536-1.022l1.02-3.528-.59-10.826s-4.035-.595-4.431-.728c-.375.175-1.492.244-1.919.728z" fill="#ffebe7"/></g><g><path d="M68.32 100.736s1.606-2.174 4.346-2.93c2.74-.755 10.489-.566 12.473-.472 1.985.095 14.458 2.079 14.458 2.079s15.78 3.59 17.576 4.441c1.795.85 16.253 8.221 18.048 9.544 1.795 1.323 4.441 4.252 4.725 5.953.283 1.701-12.568 12.473-12.568 12.473l-17.292 1.796-38.365-11.717s1.228-9.639 1.04-10.678c-.19-1.04-4.442-10.49-4.442-10.49z" fill="#fff4ef"/><path d="M122.18 76.64L91.849 92.232s3.497 1.228 4.253 4.44c.168.715.308 1.483.43 2.263-3.813-.593-10.023-1.536-11.392-1.6a104.126 104.126 0 00-7.743-.038c1.792 2.847 4.984 7.583 7.195 8.873 3.207 1.87 6.682 4.276 7.216 5.478.535 1.203.48 1.907.902 1.938.52.04 3.708 2.055 4.644 1.637.935-.417 2.472-.634 3.274-.768s12.294 2.94 13.764 2.94c1.47 0 13.497-2.807 13.497-2.807l3.372-3.46c-3.703-2-8.983-4.713-11.973-6.222.047-1.547.17-5.675.248-8.895.094-3.874 0-8.504 1.228-11.528 1.229-3.024 1.418-7.843 1.418-7.843z" fill="#ffc8b8"/><path d="M70.776 52.544s4.158 23.056 4.82 25.797c.66 2.74.85 4.724 1.606 6.047.756 1.323 1.984 2.646 3.496 3.402 1.512.756 13.135 6.237 14.08 6.426.944.189 1.559.047 1.937-.024.378-.07 10.56-4.46 12.23-5.562 1.671-1.102 10.968-7.076 11.63-7.832.66-.756 3.212-5.67 3.212-5.67s1.63 1.654 2.174 1.654c.543 0 1.275.212 1.748-.26.472-.473 1.724-1.63 2.291-2.457s1.985-2.788 2.244-3.355c.26-.567.308-1.63.237-1.937-.071-.307-.402-1.606-1.205-3.189s-2.008-3.473-2.292-3.709c-.283-.236-.425-.33-.826-.142-.402.19-1.961 1.914-1.961 1.914s-.046-15.609-1.516-20.152c-1.47-4.544-7.35-16.972-18.174-19.778-10.825-2.806-17.239-1.203-21.114 1.203-3.876 2.405-13.631 12.16-14.834 18.308-1.203 6.147.217 9.316.217 9.316z" fill="#ffe8e3"/><path d="M91.953 83.065c.173-.234 4.29-.094 5.612 0 1.323.095 3.243.074 3.544.284.285.2 1.081 1.374.945 2.504-.355 2.93-1.229 3.685-2.363 4.394-1.134.709-1.7.85-2.362.945-.662.094-1.56-.047-2.362-.567-.804-.52-1.89-1.37-2.363-2.504-.472-1.134-.85-1.701-.803-2.599.047-.897.045-1.21.032-1.795-.011-.482-.035-.45.12-.662z" fill="#ff8c87"/></g><g><path d="M106.873 39.126s-1.512-1.323-2.93 1.984c-3.613 9.933-3.361 19.005-3.023 29.293 0 0-.567-.661-1.229-1.984-.661-1.323-1.04-3.59-1.04-3.59s-.046 1.228.048 2.03c.095.804.52 3.072.52 3.072s-1.276-2.032-1.748-3.307c-1.83-6.099-2.008-12.546-2.552-18.852l1.298-13.498 7.55-.802z" fill="#905345"/><path d="M105.277 21.534c-6.736-.024-10.613-.991-18.548 2.05-1.344.514-3.708 2.472-3.708 2.472s-3.22 2.912-4.827 3.951c-1.607 1.04-5.622 4.205-6.898 5.811-1.276 1.607-1.937 2.646-2.882 4.347-.945 1.7-2.363 5.103-3.402 7.843-1.04 2.74-2.363 12.851-2.457 14.741-.095 1.89.284 8.41.284 8.41s.303-2.942.504-3.944c.2-1.002 1.002-2.539 1.002-2.539s.468 2.806.869 4.343c.4 1.537 1.47 4.61 2.071 6.214.602 1.604 1.938 4.143 1.938 4.143s-.535-3.408-.535-7.885-.134-10.49-.134-10.49l3.542-5.279c.833 1.375 1.306 11.065 3.541 13.564-.483-3.631-.533-4.939-.467-10.824.532 2.424.36 3.904 2.806 6.548.284-3.806.043-3.802 1.069-8.486 0 0 1.336 4.477 1.804 5.68.468 1.203 1.47 3.006 1.47 3.006.206-4.52.162-6.217 1.136-13.496-.339 3.931.005 9.39 3.541 14.766.001-2.41-.137-3.86.535-6.749-.072 2.871 1.365 6.382 3.14 9.02 1.336 1.939 4.343 3.743 4.343 3.743s-.334-.735-.668-1.537c-.334-.802-.735-2.072-.735-2.072.649 1.68.735 2.072 2.464 4.133-.028-.41-.658-9.916-.593-17.696.067-7.952 1.87-15.101 1.87-15.101l4.144-4.945 2.806 3.275c.184 8.55 1.61 14.991 6.749 22.65 0 0-.535-3.14-.735-5.278-.2-2.138.066-4.076.066-4.076s2.673 7.283 4.744 10.424c11.492 20.154 13.027-15.482 12.5-19.796-.984-8.05-14.179-19.191-22.349-20.941zm-9.202 51.484l.009.144s.015-.037-.01-.144z" fill="#935546"/></g></g><g fill-rule="evenodd"><path d="M53.181 187.992s-2.116 10.054-3.572 15.213c-1.455 5.16-5.953 21.167-5.82 21.564.132.397 3.44 4.498 4.63 5.424 1.19.926 4.365 2.249 4.365 2.249l3.043-42.73zM84.402 200.956l6.085 41.01s4.498-.528 6.483-1.19c1.984-.661 6.085-2.778 6.085-2.778l-7.408-39.82zM119.724 186.669s7.144 4.762 8.731 5.953c1.588 1.19 18.389 10.848 19.05 11.906.662 1.058 1.059 1.058-.264 3.837-1.323 2.778-6.218 10.583-7.673 12.237-1.456 1.653-6.813 5.953-6.813 5.953l-19.05-35.058z" fill="#515e71"/><path d="M54.63 186.805s-1.777 4.958-2.152 8.138c-.374 3.18-2.9 40.973-2.806 43.405.094 2.432 1.029 5.8 1.403 5.893.374.093 3.93.468 8.42-.28 4.49-.749 10.476-1.872 10.476-1.872l-4.958-51.075z" fill="#546174"/><path d="M60.523 191.576s-.187 7.577-.093 10.757c.093 3.18 5.612 35.173 5.893 36.763.28 1.59.374 4.77.561 4.958.187.187 10.664 1.777 12.91 1.684 2.244-.094 14.499-1.31 14.873-1.778.374-.467-.561-7.764-.655-8.98-.093-1.216-2.058-9.448-2.245-11.038-.187-1.59-1.777-21.328-1.777-21.328zM94.106 196.627s-.281 9.448.093 11.974c.374 2.525 3.274 13.564 3.555 15.528.28 1.964 1.87 10.758 2.245 12.348.374 1.59.935 4.864.935 4.864s3.274-1.31 4.49-1.684c1.217-.374 12.255-3.648 14.126-4.396 1.87-.749 10.196-5.145 12.909-6.735 2.713-1.59 2.666-2.573 2.666-2.573s-2.198-2.572-3.976-6.22c-1.777-3.649-8.887-18.803-9.635-21.329-.748-2.525-1.777-8.045-1.777-8.045z" fill="#576478"/></g><path d="M79.772 96.479s-1.943-1.254-3.908-1.441c-1.964-.187-4.77-.561-5.519-.094-.748.468-13.377 21.235-14.499 23.106-1.123 1.87-4.153 7.136-4.153 7.136s-.364-.099-.893.397c-.53.496-1.422 2.613-1.753 2.811-.33.199-8.83 10.054-10.286 11.84-1.455 1.786-5.225 5.557-5.688 6.681-.463 1.125-.132 6.482-.33 7.21-.2.728 0 4.564.33 5.622.33 1.059.926 3.837.595 5.689-.33 1.852-.992 8.136-.595 9.194.397 1.059 3.109 4.234 3.109 4.234l12.501-16.735 8.192 5.92s.093-3.788-.28-6.127c-.375-2.339-2.152-6.08-2.152-7.764 0-1.684-.022-2.365-.022-2.365s.282.166.695-.512 1.057-4.092 1.057-4.934c0-.842 12.317-19.188 13.813-21.713 1.497-2.526 4.65-10.352 4.93-11.661.281-1.31.948-13.07 1.79-14.193 1.723-2.046 2.366.181 3.066-2.301z" fill="#f1f1f1" fill-rule="evenodd"/><path d="M74.461 101.118s-2.428 11.434-2.957 12.757c-.53 1.323-1.919 5.457-3.208 6.846-1.29 1.39-6.323 6.636-7.866 8.32-1.544 1.684-3.228 3.789-3.415 4.584-.187.795-.394 14.25-.659 15.837-.264 1.587-.51 6.38-.463 7.97.047 1.59 1.29 8.037 1.29 9.591 0 1.555-3.273 16.953-3.77 18.21-.495 1.257-1.328 3.805-1.162 4.07.165.264 1.856.21 3.378 2.062 1.521 1.852 5.693 5.134 6.817 5.928 1.125.794 8.297 4.03 10.943 4.758 2.645.727 7.94.752 14.29.421 6.35-.33 14.913.733 17.427-.259 2.513-.992 9.922-3.704 10.583-4.101.662-.397 1.042-.496 1.125-.794.082-.297.05-.397.545-.595.496-.199 4.062-2.622 4.53-2.598.467.023.748-.258 1.309-.702.561-.444 1.785-1.562 2.446-2.984.661-1.422 1.995-.439 1.896-1.365-.1-.926-2.227-10.343-2.227-10.673 0-.331.563-1.853.364-2.283-.198-.43-.53-.463-.827-.727-.297-.265 0-.199.265-1.753.264-1.554-.066-6.317.033-7.97.1-1.654.992-4.995 1.224-6.549.231-1.554.231-3.605.363-3.77.133-.166 1.191-.43 1.125-.761-.066-.33-.199-1.224.033-1.885.232-.662 1.588-1.852 1.852-1.885.265-.033.43-.794.364-1.654-.066-.86.132-4.895.53-6.35.396-1.455 4.166-17.462 5.688-19.248 1.52-1.786 5.159-6.284 4.564-6.615-.596-.33-4.101-1.984-4.101-1.984l-41.375 17.956-13.096-11.038z" fill="#f3f3f3" fill-rule="evenodd"/><path d="M128.343 148.592s3.788 3.461 5.192 5.051c1.403 1.59 7.717 9.214 7.857 9.776.14.561-.047 1.777.187 1.964.234.187 1.45 1.263 1.45 1.544 0 .28 3.368 3.788 4.678 4.817 1.31 1.03 6.735 5.706 7.25 5.706.514 0 1.168-1.31 1.823-1.403.655-.093 3.228.047 3.976-.655.748-.701 3.087-5.285 3.742-5.893.655-.608 3.367-3.414 3.975-4.443.608-1.03 2.292-5.66 2.48-8.185.186-2.526-.843-7.578-1.591-9.682-.748-2.105-2.572-6.642-2.526-9.401.047-2.76-.234-2.666-.234-2.666s.45-1.337.45-2.527c0-1.191-.563-4.3-.761-4.697-.199-.397-.364-.297-.364-.297s0-.166.066-1.456-.066-1.72-.397-2.116c-.33-.397-1.488-1.687-1.654-1.753-.165-.066-.248.066-.248.066s.133-.347.199-.628c.066-.282.016-.695-.116-.778-.132-.082-.43-.413-.43-.413l-3.539-1.19-20.042-1.456-14.287 19.58z" fill="#f4f4f4" fill-rule="evenodd"/><path d="M43.217 186.992s-2.245-1.263-4.209-2.573c-1.964-1.31-3.04-2.198-3.134-2.853-.093-.655-.14-4.303.047-7.016.187-2.712.935-7.109 3.742-9.775 2.806-2.666 5.098-4.022 7.203-4.256 2.104-.234 5.285-.047 5.8.468.514.514 3.554 5.238 4.209 7.062.655 1.824-.478 3.405-.478 3.405s-.397-1.467-1.028-2.145c-.632-.679-1.721-1.283-3.78-1.33-2.057-.047-3.764.14-4.49.585-.724.444-2.806 2.198-4.022 5.495-1.216 3.298-1.934 8.079-1.57 9.203.363 1.125 1.71 3.73 1.71 3.73z" fill="#656f80" fill-rule="evenodd"/><path d="M46.203 185.974s.397.496 1.025.76c.629.265 1.058.53 1.918.53.86 0 2.382.33 2.58.165.198-.165.711-.525.8-.706.087-.181.175-.439.04-.55-.134-.11-.374-.49-.737-.567-.362-.076-1.227.006-1.479-.11-.251-.118-.257-.159-.257-.159s.79.058 1.335-.008c.546-.066 1.307-.231 1.77-.397.463-.165 1.835-.793 2.53-.975.694-.182 1.654-.43 1.918-.562.265-.133.298-.397.298-.794s.099-.728-.1-.86c-.198-.132-9.227-.298-9.458-.1-.232.2-.133.86-.397 1.059-.265.198-.926.595-.893.827.033.231.658.963.869 1.068.21.105.339.234.304.28-.035.047-.632-.269-.842-.35-.21-.082-.34.035-.491.175-.152.14-.62.935-.667 1.052-.046.117-.066.222-.066.222zM49.158 177.263c-.983.565-.983.607-1.03.796-.046.188-.116 1.717.047 1.968.164.252.842.587 1.684.629.842.041 7.975.293 8.443.188.467-.105.537-.105.748-.377.21-.272.561-.963.397-1.256-.163-.294-1.59-.922-2.572-1.11-2.513-.337-5.276-.578-7.717-.838zM50.023 175.156c.187.305.444.381.444.381s.725.127 1.24.178c.514.05 4.537.101 5.355.025.819-.076 1.497-.127 1.684-.355.187-.229.584-.838.444-1.04-.14-.204-2.385-.889-3.04-1.041-.655-.152-3.18-.431-4.022-.482-.842-.051-1.567-.051-1.848.33-.28.38-.257 2.004-.257 2.004z" fill="#fff1e9" fill-rule="evenodd"/><path d="M40.614 170.03c-.9 1.55-1.496 3.386-2.084 8.602-.166 1.474.132 3.208.43 4.663.126.619.223 1.009.3 1.289.436.287.875.566 1.302.83a6.098 6.098 0 00-.28-.366c-2.01-6.763.625-13.581 1.243-14.626 1.255-2.122 2.193-2.644 3.46-3.507 1.71-1.162 5.323-1.365 7.201-1.024 2.016.366 3.31.9 3.84 1.397.529.496.85.761.85.761-.131-.363-.358-.843-.639-1.38-.305-.305-.696-.688-1.005-.935-.496-.397-2.971-1.227-5.424-1.158-4.002.11-7.164 2.055-9.194 5.454z" fill="#fff" fill-rule="evenodd"/><g style="line-height:476.69509888px;-inkscape-font-specification:'OTADESIGN Rounded'" fill="#2ba3bc" stroke="#dbdbdb" stroke-width="16.669" paint-order="stroke markers fill"><path transform="matrix(.01578 .0019 -.00182 .01575 100.266 145.659)" d="M62.475 76.586c-7.476 0-14.596 1.246-21.36 3.738-12.103 4.272-22.07 11.926-29.902 22.961C3.737 113.965 0 125.89 0 139.061v233.878c0 17.087 6.051 31.86 18.154 44.319 12.46 12.103 27.234 18.156 44.32 18.156 17.444 0 32.216-6.053 44.319-18.156 12.46-12.46 18.69-27.232 18.69-44.319v-42.53c.134-9.212 9.622-6.795 14.417 0 8.981 15.553 28.023 28.912 50.192 28.835 22.169-.076 40.582-11.037 50.193-28.836 3.64-4.292 13.9-11.607 14.951 0v42.531c0 17.087 6.051 31.86 18.155 44.319 12.459 12.103 27.233 18.156 44.32 18.156 17.443 0 32.215-6.053 44.318-18.156 12.46-12.46 18.69-27.232 18.69-44.319V139.061c0-13.172-3.915-25.096-11.746-35.776-7.476-11.035-17.266-18.689-29.37-22.96-7.119-2.493-14.24-3.74-21.359-3.74-19.223 0-35.419 7.478-48.59 22.429-7.12 8.187-10.859 12.104-11.215 11.748 0 0-50.763 61.383-52.187 62.45-1.424 1.069-6.141 9.233-16.16 9.233-10.02 0-14.201-8.164-15.625-9.232-1.424-1.068-52.188-62.451-52.188-62.451-1.068-.356-4.984-4.273-11.748-11.748-12.815-14.951-28.834-22.428-48.056-22.428zm395.06 0c-14.95 0-27.766 5.34-38.445 16.02-10.324 10.323-15.485 22.96-15.485 37.912 0 14.95 5.161 27.766 15.485 38.445 10.68 10.323 23.494 15.486 38.445 15.486s27.766-5.163 38.445-15.486c10.68-10.68 16.02-23.494 16.02-38.445 0-14.952-5.34-27.59-16.02-37.913-10.679-10.679-23.494-16.02-38.445-16.02zm.533 118.54c-14.95 0-27.766 5.341-38.445 16.02-10.68 10.68-16.018 23.495-16.018 38.446v131.89c0 14.952 5.339 27.766 16.018 38.446 10.68 10.323 23.494 15.486 38.445 15.486s27.59-5.163 37.912-15.486c10.68-10.68 16.02-23.494 16.02-38.446v-131.89c0-14.951-5.34-27.766-16.02-38.446-10.323-10.679-22.96-16.019-37.912-16.019z" style="-inkscape-font-specification:'OTADESIGN Rounded'" stroke-width="69.055" aria-label="Mi" font-weight="400" font-size="141.034" font-family="OTADESIGN Rounded" letter-spacing="0" word-spacing="0"/></g><g><path d="M137.253 120.06s.871-1.852 1.124-2.117c2.424-2.54 7.342-6.548 9.26-7.673 1.919-1.124 5.689-4.696 6.615-4.431.926.264 1.588.595 1.588.595 5.794 6.22-9.231 22.006-18.587 13.626z" fill="#4e596a" fill-rule="evenodd"/></g><g fill-rule="evenodd"><path d="M81.36 118.01s4.034-.265 6.482.264c2.447.53 10.385 3.969 11.575 4.762 1.19.794 5.556 4.102 5.556 4.102l-24.077 12.567z" fill="#5f6979"/><path d="M79.507 106.632s-4.895 10.517-5.556 13.692c-.661 3.175-.794 13.097-.198 13.693.595.595 1.984.463 3.108.463 1.125 0 3.638.926 4.366 1.389.728.463.728.066.728-.463v-7.342z" fill="#477ccd"/><path style="line-height:normal;font-variant-ligatures:normal;font-variant-position:normal;font-variant-caps:normal;font-variant-numeric:normal;font-variant-alternates:normal;font-feature-settings:normal;text-indent:0;text-align:start;text-decoration-line:none;text-decoration-style:solid;text-decoration-color:#000;text-transform:none;text-orientation:mixed;white-space:normal;shape-padding:0;isolation:auto;mix-blend-mode:normal;solid-color:#000;solid-opacity:1" d="M81.318 119.938l-.033 1.564c.262.012.522.022.785.039 7.34.479 12.25 3.143 14.338 4.238 1.022.536 2.846 2.018 4.503 3.48l1.486-.777c-1.783-1.604-3.793-3.317-5.262-4.088-2.057-1.079-7.29-3.913-14.963-4.414-.286-.018-.57-.028-.854-.042z" color="#000" font-weight="400" font-family="sans-serif" overflow="visible" fill="#fff"/><path d="M91.089 97.12c-.853-.618-4.305-1.11-6.618-1.334-2.345-.227-10.524-1.029-10.524-1.029s-.889 5.987-1.076 9.167c-.187 3.181 0 12.161 2.432 18.335 2.432 6.174 6.172 11.179 6.453 11.807.281.629.86 2.266.86 2.266s.077-2.052.077-4.438c0-2.385 1.378-14.215 1.71-16.861.33-2.646 2.248-12.502 2.711-14.023.463-1.521.936-3.136 1.283-3.384 1.03-.564 1.634-.472 2.692-.507z" fill="#656f80"/><path d="M82.947 136.53s3.638 2.514 4.167 3.175c.53.662 4.233 4.234 5.093 4.234.86 0 3.837-.199 6.747-1.654 2.91-1.455 8.798-4.763 10.12-5.689 1.323-.926 7.277-7.276 7.277-7.276l-23.945 3.638-6.152 2.845s-2.315.727-2.58.793c-.264.066-.727-.066-.727-.066z" fill="#4f80cd"/><path d="M119.989 104.648s.926.53.992.926c.066.397-.463 2.183-1.455 3.77-.993 1.588-2.646 3.44-4.035 5.358-1.39 1.918-9.724 7.607-11.113 8.731-1.389 1.125-7.673 4.697-8.467 5.16-.793.463-7.011 2.381-8.202 3.175-1.19.793-2.348 1.389-2.894 1.786-.545.397-1.868 2.976-1.868 2.976s1.116-.132 1.455-.124c1.952.047 2.811.521 3.936.554 1.124.033 10.585 1.482 19.519-1.605 8.933-3.087 17.773-7.39 21.749-10.898 3.975-3.507 8.465-8.746 8.84-8.746.374 0 .654-.187.42-.468-.233-.28-5.191-3.508-8.278-5.332-3.087-1.824-10.6-5.263-10.6-5.263z" fill="#656f80"/><path d="M82.682 140.565s1.588 3.043 1.786 7.54c.199 4.499-.86 13.428-1.918 16.67-1.058 3.24-3.638 10.054-4.167 11.244-.53 1.19-1.257 3.308-1.257 3.308s-1.587-2.845-1.918-4.101c-.33-1.257-.794-14.023-.794-14.023z" fill="#437acd"/><path d="M74.679 138.911s-5.424 9.195-7.872 15.346c-2.447 6.152-4.564 16.603-4.167 20.704.397 4.101 1.455 8.004 2.117 8.797l.661.794s.596-.33 1.39-1.058c.793-.728 2.447-1.852 4.034-4.101 1.588-2.25 5.755-7.144 8.202-16.338 2.448-9.195 2.448-12.37 2.91-14.95.464-2.579 1.853-4.96 1.853-4.96z" fill="#477ccd"/><path d="M77.06 134.546c-.353.184-2.613 3.638-3.109 4.465s-1.025 2.348-1.025 2.348.231-.33.529-.364c.298-.033 5.126.926 6.846 2.018 1.72 1.09 3.298 1.87 3.63 1.803.33-.066 1.166-.877 1.893-2.101.285-.428 1.55-3.034 1.28-3.277-1.639-1.473-8.086-5.81-10.044-4.892z" fill="#4e7fcc"/><path style="line-height:normal;font-variant-ligatures:normal;font-variant-position:normal;font-variant-caps:normal;font-variant-numeric:normal;font-variant-alternates:normal;font-feature-settings:normal;text-indent:0;text-align:start;text-decoration-line:none;text-decoration-style:solid;text-decoration-color:#000;text-transform:none;text-orientation:mixed;white-space:normal;shape-padding:0;isolation:auto;mix-blend-mode:normal;solid-color:#000;solid-opacity:1" d="M75.827 94.941c-.808 4.11-3.047 18.814 3.386 30.926a131.156 131.156 0 003.48 6.174v-.147c0-.557.08-1.659.2-3.008a141.903 141.903 0 01-2.122-3.847c-6.174-11.626-3.897-26.218-3.175-29.925l-1.77-.173z" color="#000" font-weight="400" font-family="sans-serif" overflow="visible" fill="#fff"/><path style="line-height:normal;font-variant-ligatures:normal;font-variant-position:normal;font-variant-caps:normal;font-variant-numeric:normal;font-variant-alternates:normal;font-feature-settings:normal;text-indent:0;text-align:start;text-decoration-line:none;text-decoration-style:solid;text-decoration-color:#000;text-transform:none;text-orientation:mixed;white-space:normal;shape-padding:0;isolation:auto;mix-blend-mode:normal;solid-color:#000;solid-opacity:1" d="M134.964 112.627a228.306 228.306 0 00-5.937 4.783c-7.076 5.887-17.265 14.605-33.615 14.68-2.88.013-5.71.062-8.418.132-.918.568-1.744 1.016-2.179 1.332-.097.07-.224.226-.359.409 3.456-.11 7.166-.19 10.964-.207 16.942-.078 27.613-9.194 34.672-15.067 2.6-2.163 4.718-3.844 6.352-5.106-.474-.31-.937-.61-1.48-.956z" color="#000" font-weight="400" font-family="sans-serif" overflow="visible" fill="#fcfcfc"/></g><g fill-rule="evenodd"><path d="M120.196 58.119s-1.606 20.222-2.173 24.19c-1.686 13.214-4.292 20.939-10.205 32.979 0 0 1.932-1.546 3.59-4.063 10-16.065 9.617-34.962 8.788-53.106z" fill="#935546"/><path d="M74.272 45.268s-1.795 7.56-1.512 12.284c.284 4.725 2.835 19.277 3.213 23.057.378 3.78 1.323 12.095 1.323 15.213 0 3.118.095 8.221.662 11.434.567 3.213 1.511 10.678 1.511 10.678-.888-1.599-1.407-2.996-1.984-4.82-.357 3.296-.427 4.077.567 8.789 0 0-2.173-5.765-2.74-8.127-.567-2.362-1.701-7.465-1.89-9.166-.19-1.7-.85-10.016-1.04-12-.189-1.985-1.795-11.718-1.984-13.702-.189-1.985-2.362-15.403-2.362-18.71 0-3.307 1.04-11.717 1.89-12.946.85-1.228 4.346-1.984 4.346-1.984z" fill="#935848"/><path d="M109.613 124.548c6.303-3.139 8.255-9.614 10.205-16.253.567-2.078 4.907-19.305 5.292-21.733.375-2.364 1.701-17.198 1.701-20.033 0-2.835.189-12-.047-14.788-.658-8.557-6.714-13.41-10.203-16.866 5.738 8.963 2.6 16.594 2.502 25.134 0 5.575.378 22.867.094 27.309-.283 4.44-2.268 21.922-2.646 24.001-1.107 6.603-2.515 8.414-6.898 13.23z" fill="#925b4b"/></g><g fill-rule="evenodd"><path d="M132.35 90.651s.395-1.226.915-2.549.77-1.928.804-2.078c.033-.15.284-1.22.418-1.453.133-.234.403-10.813.45-11.994.048-1.182.898-5.953 1.276-6.71.378-.755.93-1.191 1.13-1.258.2-.067.585-.184.785-.05.2.134.368.3.418.601.05.301-.067 5.195-.134 7.1-.067 1.904-.11 9.24-.11 9.24s.043.348.41.281c.368-.067 1.738.668 1.738.668s1.931-6.18 2.299-7.116c.367-.935 2.332-5.044 2.666-5.713.334-.668 1.022-1.817 1.623-2.218.602-.4 1.664-.755 1.898-.655.234.1.501 1.337.468 1.57-.034.234-3.352 7.288-3.615 7.972-.272.705-1.564 4.824-1.564 5.125 0 .3-.133 2.773-.133 2.773l1.704 2.572 5.178 2.873s.334.334.3 1.838c-.033 1.503-.534 4.61-.467 5.111.067.501.334 1.17.334 1.17s-12.595-1.237-12.729-1.27c-.133-.033-5.675-5.01-5.675-5.01z" fill="#ffefe5"/><path d="M145.52 121.808s-2.362-4.252-2.74-5.48c-.377-1.229-5.102-12.285-5.764-13.419-.661-1.134-3.147-3.822-4.383-5.125a246.722 246.722 0 00-4.277-4.377c-1.47-1.47-5.005-4.1-5.39-4.383-.383-.284-.409-.267-.517-.443-.109-.175.075-.944.626-1.094.552-.15 3.05-.335 5.083.445 2.031.78 3.708 2.079 4.063 2.079.354 0 1.63-.095 2.008 0 .378.094 3.118 1.559 3.732 2.079.615.52 2.552 2.504 3.308 2.787.756.284 6.33 1.323 7.134 1.56.803.236 2.551.755 2.74 1.275.19.52 2.646 7.796 2.882 8.268.237.473 2.41 5.292 2.93 6.095.52.803-11.434 9.733-11.434 9.733z" fill="#fff1e9"/><path d="M147.433 85.824s.467-.167 1.069-.234c.601-.067 1.67-.134 1.97.133.301.268.803 2.306.77 2.74-.034.434-.168 1.537-.435 2.038-.267.501-2.305 4.21-2.606 4.31-.3.1-2.005-.1-2.238-.268-.234-.167-.468-1.069-.468-1.069l2.105-3.842z" fill="#fff3ed"/><path d="M143.29 84.788s.067 2.038.234 2.238c.167.2.267.301.267.301s-.568 1.303-.735 2.606c-.167 1.303-.4 4.009-.167 4.276.234.268 1.17.936 1.437.936.267 0 .534.067.668-.1.133-.168 1.403-2.473 1.97-3.508.569-1.036 1.07-1.738 1.07-2.038 0-.301.4-2.372.167-3.375-.234-1.002-.2-.902-.4-1.236-.201-.334-.636-1.002-1.037-1.035-.4-.034-3.107.902-3.107.902z" fill="#fff3ed"/></g><g><path d="M155.143 106.146s1.216 1.193 1.076 1.848c-.14.654-.234 1.964-.748 2.572-.515.608-11.974 7.577-13.143 8.092-1.17.514-3.074 1.303-3.471 1.32-.397.016-1.092-.48-.993-.778.1-.298 1.125-1.77 1.125-1.77s-1.174.984-1.571 1.563c-.397.578-.796 1.606-.703 2.471.094.865.187 1.824.655 2.76.468.935 2.993 5.378 3.414 5.612.421.234 1.357.421 3.04.374 1.684-.046 5.753-.748 9.87-1.964 4.115-1.216 7.764-5.847 8.138-6.267.374-.421 1.193-1.522 1.193-1.745 0-.224-2.386-6.791-3.134-9.107-.749-2.315-.842-3.133-1.38-3.46-.538-.328-3.368-1.52-3.368-1.52z" fill="#656f80" fill-rule="evenodd"/><path d="M136.692 102.862c.014-.133 2.422-.033 4.159-.501 1.737-.468 5.412-1.503 7.183-2.54 1.77-1.035 3.357-2.286 3.452-2.263.094.024 2.545 6.59 2.612 6.824.066.234.066.3.016.368-.05.066-2.94 2.489-3.808 2.956-.869.468-4.21 1.537-5.58 1.771-1.37.234-4.608.531-4.742.448-.615-2.013-3.308-6.915-3.292-7.063z" fill="#c4ebff" fill-rule="evenodd"/><text style="line-height:11.62665844px;-inkscape-font-specification:'Nu Hanafudaya'" x="58.302" y="175.296" transform="rotate(-36.091)" font-weight="400" font-size="3.44" font-family="Nu Hanafudaya" letter-spacing="0" word-spacing="0" fill="#00496e" stroke-width=".265"><tspan x="58.302" y="175.296" style="-inkscape-font-specification:'OTADESIGN Rounded'" font-family="OTADESIGN Rounded">Ai</tspan></text><path d="M153.442 102.6c-.085.22-.119.499-.096.678 0 0-.506-.219-.752-.067-.129.08-.292.456-.152.678.31.443.96.697 1.462.527 0 0 .035-.106.07-.373-.095-.266-.264-.724-.532-1.444z" fill="#00496e" fill-rule="evenodd"/><path d="M159.446 109.688c0 .472-.014 1.013-.074 1.53-.14 1.216-1.497 1.824-8.232 6.548-2.888 2.026-11.225 5.192-12.114 5.425-.705.186-1.732-.262-2.14-.461.094.493.235.996.484 1.493l.067.124a33.4 33.4 0 001.075.341c.655.187 2.479-.515 3.414-.702.936-.187 4.724-1.824 10.243-4.817 3.789-2.339 7.905-5.94 8.186-6.548l.02-.054a91.313 91.313 0 01-.484-1.44c-.183-.565-.325-1.037-.445-1.439z" fill="#fcfcfc" fill-rule="evenodd"/></g><g fill-rule="evenodd"><path style="line-height:normal;font-variant-ligatures:normal;font-variant-position:normal;font-variant-caps:normal;font-variant-numeric:normal;font-variant-alternates:normal;font-feature-settings:normal;text-indent:0;text-align:start;text-decoration-line:none;text-decoration-style:solid;text-decoration-color:#000;text-transform:none;text-orientation:mixed;white-space:normal;shape-padding:0;isolation:auto;mix-blend-mode:normal;solid-color:#000;solid-opacity:1" d="M77.442 75.703a.244.244 0 00-.223.148l-.857 1.89a.245.245 0 10.446.201l.853-1.89a.244.244 0 00-.22-.349zM78.511 75.455a.244.244 0 00-.198.15l-1.166 2.712a.245.245 0 10.45.194l1.162-2.714a.244.244 0 00-.248-.342zM79.742 75.343a.244.244 0 00-.205.137l-1.357 2.693a.244.244 0 10.435.22l1.358-2.69a.244.244 0 00-.23-.36zM81.018 75.214a.244.244 0 00-.23.14l-1.289 2.653a.244.244 0 10.44.213l1.288-2.65a.244.244 0 00-.209-.356zM81.724 75.707a.244.244 0 00-.216.13l-.576 1.043a.244.244 0 10.424.238l.58-1.044a.244.244 0 00-.212-.367zM110.817 74.944a.244.244 0 00-.18.097l-1.206 1.555a.245.245 0 10.39.299l1.202-1.555a.244.244 0 00-.206-.396zM112.542 74.868a.244.244 0 00-.162.09l-1.995 2.376a.244.244 0 10.375.313l1.994-2.376a.244.244 0 00-.212-.403zM114.414 74.807a.244.244 0 00-.166.08l-2.149 2.332a.245.245 0 10.36.331l2.15-2.333a.244.244 0 00-.195-.41zM115.836 75.599a.244.244 0 00-.166.075l-1.13 1.16a.246.246 0 10.353.342l1.126-1.16a.244.244 0 00-.183-.417z" color="#000" font-weight="400" font-family="sans-serif" overflow="visible" fill="#fbd7d6"/><path d="M100.724 62.331c-.083 2.398.297 7.673.926 9.128.628 1.455 1.576 2.25 2.208 2.508.631.257 1.87.093 3.624.093s2.9.445 4.233.07c1.333-.374 2.222-.467 2.503-1.38.28-.911 1.192-2.08 1.637-5.004.444-2.923.187-4.747.187-4.747l-2.175-1.637-3.485-1.216-3.04.07-3.134.561z" fill="#fff"/><path d="M78.694 61.409s1.123-.117 2.292.093c1.17.21 2.62 1.03 2.62 1.03s-1.217-1.077-1.872-1.24c-.654-.164-2.221-.07-2.502-.07-.28 0-.538.187-.538.187zM100.36 60.099s.33-.199.645-.364c.314-.165 2.563-.893 3.092-1.058.53-.166 1.736-.199 1.736-.199s-.959.149-1.455.314c-.496.166-2.976 1.042-3.191 1.108-.215.066-.827.199-.827.199z" fill="#423937"/><path d="M74.859 65.992c.608 3.602.959 5.917 1.94 6.782.983.866 2.316 1.544 3.181 1.637.866.094 2.55.117 3.555-.047 1.006-.163 2.245-.42 2.502-.748.258-.327.655-.912.562-1.59-.094-.678-2.098-7.65-2.098-7.65l-1.247-1.097-4.887-.584-2.222 1.216z" fill="#fff"/><path d="M78.052 63.307s.992 4.696 1.654 6.945c.661 2.249 1.025 3.87 1.389 3.936.364.066 3.935-.033 4.53-.662.596-.628.761-1.025.795-1.488.033-.463-.677-3.91-1.612-5.94-.935-2.03-1.2-2.427-1.2-2.427l-4.696-.794z" fill="#f56562"/><path d="M78.912 62.877l-.86.43s.234 1.101.543 2.469c2.253 1.147 4.44 1.84 6.336 2.144.215.035.401.04.566.023-.208-.66-.41-1.77-.66-2.312-.935-2.031-1.229-1.96-1.229-1.96z" fill="#9c4947"/><path d="M83.582 66.343c-.515.772-.561 2.058-.234 2.877.327.818.35 2.104.865 2.034.515-.07 1.263-.327 1.544-1.146.28-.818-.21-2.736-.398-3.157-.187-.42-.888-.982-1.263-.865-.374.117-.514.257-.514.257z" fill="#8e3432"/><path d="M110.382 60.146l-3.04.07-3.133.561-.179.08c.065 1.272.222 4.375.249 5.757.033 1.687.298 6.548.397 6.945.099.397.155.345.319.334.163-.012 1.47-.103 2.218-.08.748.024 2.278.11 2.944.169.667.058 1.762-.133 1.844-.175.083-.041 1.315-.289 1.722-4.164.215-2.05.588-5.124.495-6.41a23.107 23.107 0 00-.233-1.783l-.118-.088z" fill="#f56562"/><path d="M110.382 60.146l-3.04.07-3.133.561-.179.08c.034.665.093 1.826.145 2.985.539.37 1.163.72 1.89 1.02 3.707 1.527 4.661 1.667 7.964 1.891.162-1.353.246-2.74.189-3.52a23.103 23.103 0 00-.233-1.782v-.001l-.118-.088z" fill="#9c4947"/><path d="M75.467 69.594s-.094-1.333-.164-1.988-.14-1.427.14-1.941c.281-.515.749-1.73 2.269-1.988 1.52-.257 4.022-.093 4.654.117.631.21 1.403.538 1.754 1.052.35.515.548 1.229.688 1.252.261-.465-.189-1.337-.29-1.795.093-.011.641.647.606.576-.035-.07-.28-.758-.513-.956-.234-.2-1.345-1.275-3.31-1.427-1.964-.152-3.32-.129-4.384.433-1.064.56-2.374 2.373-2.49 2.642-.014.031-.151.158-.135.27.008.055.153-.055.168.017.222 1.032 1.007 3.736 1.007 3.736z" fill="#423937"/><path d="M78.04 70.81c1.332-.491 1.73-.655 2.502-.351.771.304 1.426.725 1.169 1.029-.257.304-.959.982-1.614.889-.654-.094-2.058-1.567-2.058-1.567zM83.58 70.893c.062-.322.491-.442.574-.376.083.066.104.578-.198.707-.211.09-.407-.172-.377-.331z" fill="#fff"/><path d="M109.736 64.067c-1.257.794-1.521 1.522-1.72 2.382-.198.86-.397 3.109.265 3.505.661.397 1.058 1.026 1.918.43.86-.595 1.257-.959 1.455-1.918.199-.959.298-1.819-.165-2.745-.463-.926-.728-1.356-1.059-1.455-.33-.1-.694-.199-.694-.199z" fill="#8e3432"/><path d="M99.555 62.601s2.128-1.847 4.98-2.502c2.854-.655 5.824-1.052 8.069.07 2.245 1.123 3.765 2.222 4.373 3.204.608.982.667 1.076.585 1.04-.082-.034-.485-.42-.515-.327-.029.094.064.99-.3 2.396a19.501 19.501 0 01-.893 2.613s-.082-1.77-.115-2.762.115-2.398-.315-3.026c-.43-.629-1.058-1.257-2.745-1.935-1.686-.678-4.25-1.075-6.184-.612-2.067.387-3.096.716-3.952 1.075-1.77.76-2.76 1.509-2.755 1.427.006-.082.948-.854.877-.883-.07-.03-1.21.45-1.21.415 0-.035.1-.193.1-.193z" fill="#423937"/><path d="M102.41 68.764s.348-.083 1.158.066c.81.149 1.77.496 1.984 1.025.215.53-.082.96-.81 1.025-.728.067-2.414-.744-2.414-.744zM107.487 70.285c.298-.694.562-.827.827-.694.264.132.297.529-.066.793-.364.265-.654.207-.695.1a2.322 2.322 0 01-.066-.199zM114.763 64.993s-.678.017-.96.249c-.28.231-.561.628-.164.76.396.133.893.298 1.223.199.331-.1.463-.48.43-.778-.033-.297-.529-.43-.529-.43z" fill="#fff"/><path d="M85.349 66.124s.043-.014-.135.04a.796.796 0 00-.37.233c-.057.072-.206.343.023.362.23.018.552-.04.684-.122.133-.083.186-.244.14-.343-.045-.1-.342-.17-.342-.17z" fill="#fffcfa"/><path d="M77.324 73.807s-.062.464.002.54c.064.076.088.181.146.111.059-.07.076-.216.082-.368.006-.152-.093-.24-.152-.293-.058-.052-.078.01-.078.01zM77.975 74.18c-.096.08-.114.146-.09.193.023.047.043.129.134.126.09-.003.114-.135.093-.237-.02-.102-.137-.082-.137-.082zM80.07 74.552c.248-.282.43-.248 1.025-.232.595.017 1.984.1 3.224-.231 1.24-.331 1.654-.629 1.77-.629.116 0 .264.033.132.166-.132.132-.661.396-1.157.545-.497.149-2.514.513-3.01.546-.496.033-1.571.066-1.753 0-.182-.066-.231-.165-.231-.165zM104.243 74.212c-.163-.14-.07-.187.246-.245.316-.059 1.66-.059 2.187-.082.526-.023 2.07.14 2.467.129.397-.012 1.31.07 1.812 0 .503-.07 1.158-.2 1.357-.14.198.058.35.163.175.257-.175.093-.854.315-1.193.28-.339-.035-1.356-.082-1.742-.14-.386-.059-1.276-.111-1.58-.065-.304.047-1.472-.064-1.928-.005-.456.058-1.8.011-1.8.011zM113.316 73.518c-.149.364-.124.711.074.678.199-.033.356-.025.249-.298-.108-.272.008-.405-.108-.446-.116-.041-.215.066-.215.066zM114.027 73.526c-.14.116-.198.248-.016.306.182.058.405-.074.289-.182-.116-.107-.273-.124-.273-.124zM114.308 72.815c-.149.248-.14.405.017.48.157.074.14.149.198-.091.058-.24-.215-.389-.215-.389zM70.443 52.26c.566-.012 1.502-.566 3.938-.895 2.436-.33 5.84-.625 8.242.015 2.4.64 3.485 1.404 3.651 1.255.167-.148-.16-.348-.598-.577-.438-.23-1.623-.912-3.292-1.212-3.576-.641-4.04-.42-6.197-.232-2.157.188-4.212.947-4.695 1.099-.483.152-1.087.47-1.097.498-.01.027.048.05.048.05zM98.918 49.327c.155.22.248.172.504.075.256-.097.788-.537 3.661-.81 5.688-.633 9.029-.14 14.12 2.09 1.314.577 2.546 1.533 2.756 1.46.21-.073-.028-.303-.829-.737-4.206-2.381-8.465-3.46-12.115-3.508-2.55-.036-4.302.104-5.351.376-1.05.271-2.422.787-2.567.876-.145.09-.179.178-.179.178z" fill="#423937"/></g></svg>